# xmcd
#
# Track frame offsets:
#  150
#  16151
#  27693
#  40133
#  54633
#  75570
#  90873
#  107605
#  121666
#  136347
#  150450
#  165152
#
# Disc length: 2397 seconds
#
# Revision: 0
# Processed by: cddbd v1.5.1PL2 Copyright (c) Steve Scherf et al.
# Submitted via: Collectorz.com Music Collector 6.9
#
DISCID=7d095b0c
DTITLE=Magnificent Seven - Magnitude
DYEAR=1900
DGENRE=
TTITLE0=Cool 2 Be A Cowboy
TTITLE1=Lucky Lips
TTITLE2=My Mate Bruce
TTITLE3=Josephine
TTITLE4=Yes Or No
TTITLE5=Don't It Make You Want To Go Home
TTITLE6=Party Till The Cows Come Home
TTITLE7=As I Am
TTITLE8=Hey Dwight Yoakam
TTITLE9=My Old Friend Misery
TTITLE10=Women
TTITLE11=Things
EXTD=
EXTT0=
EXTT1=
EXTT2=
EXTT3=
EXTT4=
EXTT5=
EXTT6=
EXTT7=
EXTT8=
EXTT9=
EXTT10=
EXTT11=
PLAYORDER=
